<svg width="165" height="48" viewBox="0 0 165 48" fill="none" xmlns="http://www.w3.org/2000/svg">
<path d="M1.0704 37.1427V18.839H23.9234V17.7686H1.0704V1.0704H25.3684V0H0V38.2131H25.5825V37.1427H1.0704ZM46.1876 10.704L36.7146 23.1741L27.4557 10.704H26.0641L36.0723 23.9769L25.1008 38.2131H26.3853L36.7146 24.7797L47.0974 38.2131H48.4354L37.4103 23.9769L47.4721 10.704H46.1876ZM51.6466 47.6326V30.5063H51.7537C52.3959 33.0039 53.6625 35.0109 55.5536 36.5273C57.4446 38.0437 59.853 38.8019 62.7787 38.8019C64.6698 38.8019 66.3467 38.4183 67.8096 37.6512C69.2725 36.8841 70.4945 35.8404 71.4757 34.5203C72.4569 33.2001 73.2062 31.6659 73.7235 29.9176C74.2409 28.1693 74.4996 26.3318 74.4996 24.405C74.4996 22.3356 74.232 20.4267 73.6968 18.6784C73.1616 16.9301 72.3855 15.4137 71.3687 14.1292C70.3518 12.8447 69.1208 11.8457 67.6758 11.1321C66.2308 10.4185 64.5984 10.0617 62.7787 10.0617C61.3872 10.0617 60.0938 10.2669 58.8985 10.6772C57.7033 11.0875 56.6418 11.6673 55.7141 12.4166C54.7864 13.1659 53.9837 14.0489 53.3057 15.0658C52.6278 16.0827 52.1105 17.1977 51.7537 18.4108H51.6466V10.704H50.5762V47.6326H51.6466ZM62.7787 37.785C59.4248 37.785 56.731 36.6343 54.6972 34.333C52.6635 32.0316 51.6466 28.7223 51.6466 24.405C51.6466 22.621 51.8964 20.9263 52.3959 19.3207C52.8954 17.715 53.6179 16.3057 54.5634 15.0926C55.509 13.8795 56.6775 12.9161 58.069 12.2025C59.4605 11.4889 61.0304 11.1321 62.7787 11.1321C64.5627 11.1321 66.1237 11.4889 67.4617 12.2025C68.7997 12.9161 69.9058 13.8884 70.7799 15.1193C71.6541 16.3503 72.3142 17.7596 72.7602 19.3474C73.2062 20.9352 73.4292 22.621 73.4292 24.405C73.4292 26.0106 73.224 27.6073 72.8137 29.1951C72.4034 30.7828 71.7701 32.21 70.9137 33.4766C70.0574 34.7433 68.9603 35.778 67.6223 36.5808C66.2843 37.3836 64.6698 37.785 62.7787 37.785ZM80.3868 38.2131V22.6389C80.3868 21.1403 80.6008 19.6775 81.029 18.2503C81.4572 16.8231 82.1172 15.5653 83.0092 14.4771C83.9012 13.3889 85.034 12.5326 86.4077 11.9082C87.7814 11.2838 89.4137 11.0251 91.3048 11.1321V10.0617C89.6635 10.026 88.2274 10.2044 86.9964 10.5969C85.7655 10.9894 84.704 11.5246 83.812 12.2025C82.92 12.8804 82.2064 13.6743 81.6712 14.5841C81.136 15.494 80.7436 16.4663 80.4938 17.501H80.3868V10.704H79.3164V38.2131H80.3868ZM92.6428 24.6726H115.656C115.728 22.7816 115.54 20.9619 115.094 19.2136C114.648 17.4653 113.935 15.9132 112.954 14.5574C111.972 13.2015 110.706 12.1133 109.154 11.2927C107.602 10.472 105.755 10.0617 103.614 10.0617C102.08 10.0617 100.582 10.3828 99.1187 11.0251C97.6558 11.6673 96.3713 12.6039 95.2653 13.8349C94.1592 15.0658 93.2672 16.5733 92.5893 18.3573C91.9113 20.1413 91.5724 22.175 91.5724 24.4586C91.5724 26.4923 91.8043 28.3923 92.2682 30.1584C92.732 31.9246 93.4456 33.4588 94.4089 34.7611C95.3723 36.0634 96.6122 37.0714 98.1286 37.785C99.645 38.4986 101.474 38.8375 103.614 38.8019C106.754 38.8019 109.394 37.9188 111.535 36.1526C113.676 34.3865 114.943 31.8978 115.335 28.6866H114.265C113.801 31.7194 112.615 33.994 110.706 35.5104C108.797 37.0268 106.397 37.785 103.507 37.785C101.545 37.785 99.8858 37.446 98.53 36.7681C97.1741 36.0902 96.0681 35.1625 95.2117 33.9851C94.3554 32.8076 93.7221 31.4251 93.3118 29.8373C92.9015 28.2495 92.6785 26.528 92.6428 24.6726ZM114.586 23.6022H92.6428C92.7498 21.6755 93.1066 19.9451 93.7132 18.4108C94.3197 16.8766 95.1136 15.5653 96.0948 14.4771C97.076 13.3889 98.2178 12.5593 99.5201 11.9884C100.822 11.4176 102.223 11.1321 103.721 11.1321C105.505 11.1321 107.075 11.4622 108.431 12.1222C109.787 12.7823 110.92 13.6832 111.83 14.825C112.739 15.9667 113.426 17.2958 113.89 18.8122C114.354 20.3286 114.586 21.9253 114.586 23.6022ZM137.867 18.839H138.937C138.937 15.7705 138.045 13.5405 136.261 12.149C134.477 10.7575 132.051 10.0617 128.983 10.0617C127.27 10.0617 125.825 10.2758 124.648 10.704C123.47 11.1321 122.507 11.6852 121.758 12.3631C121.008 13.041 120.473 13.7903 120.152 14.6109C119.831 15.4315 119.67 16.2165 119.67 16.9658C119.67 18.4643 119.938 19.6596 120.473 20.5516C121.008 21.4436 121.847 22.1394 122.989 22.6389C123.773 22.9957 124.665 23.3168 125.665 23.6022C126.664 23.8877 127.823 24.191 129.143 24.5121C130.321 24.7975 131.48 25.0829 132.622 25.3684C133.764 25.6538 134.772 26.0374 135.646 26.5191C136.52 27.0007 137.234 27.6162 137.787 28.3655C138.34 29.1148 138.616 30.096 138.616 31.3091C138.616 32.4865 138.34 33.4856 137.787 34.3062C137.234 35.1268 136.529 35.7958 135.673 36.3132C134.816 36.8306 133.862 37.2052 132.809 37.4371C131.757 37.669 130.731 37.785 129.732 37.785C126.485 37.785 123.996 37.0625 122.266 35.6174C120.536 34.1724 119.67 31.8978 119.67 28.7937H118.6C118.6 32.2546 119.536 34.7879 121.41 36.3935C123.283 37.9991 126.057 38.8019 129.732 38.8019C130.909 38.8019 132.096 38.6681 133.291 38.4005C134.486 38.1329 135.557 37.6958 136.502 37.0892C137.448 36.4827 138.215 35.6977 138.804 34.7344C139.392 33.771 139.687 32.5936 139.687 31.202C139.687 29.8819 139.428 28.8115 138.911 27.9909C138.393 27.1702 137.715 26.4923 136.877 25.9571C136.038 25.4219 135.093 25.0027 134.04 24.6994C132.988 24.3961 131.926 24.1018 130.856 23.8163C129.357 23.4238 128.046 23.0849 126.922 22.7994C125.798 22.514 124.755 22.175 123.791 21.7826C122.864 21.3901 122.123 20.8281 121.57 20.0967C121.017 19.3652 120.741 18.3216 120.741 16.9658C120.741 16.716 120.812 16.27 120.955 15.6278C121.097 14.9855 121.436 14.3344 121.972 13.6743C122.507 13.0142 123.327 12.4255 124.434 11.9082C125.54 11.3908 127.056 11.1321 128.983 11.1321C130.303 11.1321 131.507 11.2748 132.595 11.5603C133.684 11.8457 134.62 12.3006 135.405 12.925C136.19 13.5494 136.797 14.3433 137.225 15.3067C137.653 16.27 137.867 17.4475 137.867 18.839ZM162.647 18.839H163.717C163.717 15.7705 162.825 13.5405 161.041 12.149C159.257 10.7575 156.831 10.0617 153.762 10.0617C152.05 10.0617 150.605 10.2758 149.427 10.704C148.25 11.1321 147.287 11.6852 146.537 12.3631C145.788 13.041 145.253 13.7903 144.932 14.6109C144.611 15.4315 144.45 16.2165 144.45 16.9658C144.45 18.4643 144.718 19.6596 145.253 20.5516C145.788 21.4436 146.626 22.1394 147.768 22.6389C148.553 22.9957 149.445 23.3168 150.444 23.6022C151.443 23.8877 152.603 24.191 153.923 24.5121C155.1 24.7975 156.26 25.0829 157.402 25.3684C158.544 25.6538 159.551 26.0374 160.426 26.5191C161.3 27.0007 162.013 27.6162 162.566 28.3655C163.119 29.1148 163.396 30.096 163.396 31.3091C163.396 32.4865 163.119 33.4856 162.566 34.3062C162.013 35.1268 161.309 35.7958 160.452 36.3132C159.596 36.8306 158.642 37.2052 157.589 37.4371C156.537 37.669 155.511 37.785 154.512 37.785C151.265 37.785 148.776 37.0625 147.046 35.6174C145.315 34.1724 144.45 31.8978 144.45 28.7937H143.38C143.38 32.2546 144.316 34.7879 146.189 36.3935C148.063 37.9991 150.837 38.8019 154.512 38.8019C155.689 38.8019 156.875 38.6681 158.071 38.4005C159.266 38.1329 160.336 37.6958 161.282 37.0892C162.227 36.4827 162.995 35.6977 163.583 34.7344C164.172 33.771 164.466 32.5936 164.466 31.202C164.466 29.8819 164.208 28.8115 163.69 27.9909C163.173 27.1702 162.495 26.4923 161.657 25.9571C160.818 25.4219 159.873 25.0027 158.82 24.6994C157.767 24.3961 156.706 24.1018 155.636 23.8163C154.137 23.4238 152.826 23.0849 151.702 22.7994C150.578 22.514 149.534 22.175 148.571 21.7826C147.643 21.3901 146.903 20.8281 146.35 20.0967C145.797 19.3652 145.52 18.3216 145.52 16.9658C145.52 16.716 145.592 16.27 145.734 15.6278C145.877 14.9855 146.216 14.3344 146.751 13.6743C147.287 13.0142 148.107 12.4255 149.213 11.9082C150.319 11.3908 151.836 11.1321 153.762 11.1321C155.083 11.1321 156.287 11.2748 157.375 11.5603C158.463 11.8457 159.4 12.3006 160.185 12.925C160.97 13.5494 161.576 14.3433 162.004 15.3067C162.433 16.27 162.647 17.4475 162.647 18.839Z" fill="#222222"/>
</svg>
